{"title":"Gallipoli S01E07 The Earth Abides 1080P WEB-DL","uid":11746543,"size":1744144558,"categoryP":"video","categoryS":"hd___tv_shows","magnet":"?xt=urn:btih:337086945a90012e48ddc4646778dba3b1c873fc&amp;dn=+Gallipoli+S01E07+The+Earth+Abides+1080P+WEB-DL&amp;tr=udp%3A%2F%2Ftracker.openbittorrent.com%3A80&amp;tr=udp%3A%2F%2Fopen.demonii.com%3A1337&amp;tr=udp%3A%2F%2Ftracker.coppersurfer.tk%3A6969&amp;tr=udp%3A%2F%2Fexodus.desync.com%3A6969","seeders":6,"leechers":0,"uploader":"jmanwf","files":2,"time":1426048438,"description":"\nBritish commanders race the clock to withdraw troops before the arrival of massive German howitzers headed for the front line. Tolly volunteers to stay behind and guard the near-empty trenches as tens of thousands of troops are evacuated from Gallipoli.\n\n\nVideo\nID : 2\nFormat : AVC\nFormat/Info : Advanced Video Codec\nFormat profile : &lt;a class=&quot;__cf_email__&quot; href=&quot;/cdn-cgi/l/email-protection&quot; data-cfemail=&quot;6f270608072f235b415f&quot;&gt;[email&amp;#160;protected]&lt;/a&gt;&lt;script cf-hash='f9e31' type=&quot;text/javascript&quot;&gt;\n/* &lt;![CDATA[ */!function(){try{var t=&quot;currentScript&quot;in document?document.currentScript:function(){for(var t=document.getElementsByTagName(&quot;script&quot;),e=t.length;e--;)if(t[e].getAttribute(&quot;cf-hash&quot;))return t[e]}();if(t&amp;&amp;t.previousSibling){var e,r,n,i,c=t.previousSibling,a=c.getAttribute(&quot;data-cfemail&quot;);if(a){for(e=&quot;&quot;,r=parseInt(a.substr(0,2),16),n=2;a.length-n;n+=2)i=parseInt(a.substr(n,2),16)^r,e+=String.fromCharCode(i);e=document.createTextNode(e),c.parentNode.replaceChild(e,c)}}}catch(u){}}();/* ]]&gt; */&lt;/script&gt;\nFormat settings, CABAC : Yes\nFormat settings, ReFrames : 4 frames\nCodec ID : avc1\nCodec ID/Info : Advanced Video Coding\nDuration : 42mn 55s\nBit rate : 4 904 Kbps\nWidth : 1 912 pixels\nHeight : 1 072 pixels\nDisplay aspect ratio : 16:9\nFrame rate mode : Constant\nFrame rate : 25.000 fps\nColor space : YUV\nChroma subsampling : 4:2:0\nBit depth : 8 bits\nScan type : Progressive\nBits/(Pixel*Frame) : 0.096\nStream size : 1.47 GiB (91%)\nLanguage : English\nEncoded date : UTC 2015-03-10 03:24:59\nTagged date : UTC 2015-03-10 03:28:21\nColor primaries : BT.709\nTransfer characteristics : BT.709\nMatrix coefficients : BT.709\nColor range : Limited\n\nAudio #1\nID : 1\nFormat : AAC\nFormat/Info : Advanced Audio Codec\nFormat profile : LC\nCodec ID : 40\nDuration : 42mn 55s\nDuration_LastFrame : -20ms\nBit rate mode : Variable\nBit rate : 126 Kbps\nMaximum bit rate : 176 Kbps\nChannel(s) : 2 channels\nChannel positions : Front: L R\nSampling rate : 48.0 KHz\nCompression mode : Lossy\nStream size : 38.6 MiB (2%)\nLanguage : English\nEncoded date : UTC 2015-03-10 03:24:59\nTagged date : UTC 2015-03-10 03:28:21\n\nAudio #2\nID : 3\nFormat : AC-3\nFormat/Info : Audio Coding 3\nMode extension : CM (complete main)\nFormat settings, Endianness : Big\nCodec ID : ac-3\nDuration : 42mn 55s\nBit rate mode : Constant\nBit rate : 384 Kbps\nChannel(s) : 6 channels\nChannel positions : Front: L C R, Side: L R, LFE\nSampling rate : 48.0 KHz\nBit depth : 16 bits\nCompression mode : Lossy\nStream size : 118 MiB (7%)\nLanguage : English\nEncoded date : UTC 2015-03-10 03:24:59\nTagged date : UTC 2015-03-10 03:28:21\n\nText\nID : 4-CC1\nFormat : EIA-608\nMuxing mode : Final Cut\nCodec ID : c608\nDuration : 40mn 17s\nBit rate mode : Constant\nStream size : 0.00 Byte (0%)\nLanguage : English\nEncoded date : UTC 2015-03-10 03:24:59\nTagged date : UTC 2015-03-10 03:26:48\n\n\n\n &lt;a href=&quot;\nhttps://itunes.apple.com/au/tv-season/gallipoli/id963000707&quot; rel=&quot;nofollow&quot; target=&quot;_NEW&quot;&gt;\nhttps://itunes.apple.com/au/tv-season/gallipoli/id963000707&lt;/a&gt;","torrent":{"xt":"urn:btih:337086945a90012e48ddc4646778dba3b1c873fc","amp;dn":"+Gallipoli+S01E07+The+Earth+Abides+1080P+WEB-DL","amp;tr":["udp%3A%2F%2Ftracker.openbittorrent.com%3A80","udp%3A%2F%2Fopen.demonii.com%3A1337","udp%3A%2F%2Ftracker.coppersurfer.tk%3A6969","udp%3A%2F%2Fexodus.desync.com%3A6969"],"infoHash":"337086945a90012e48ddc4646778dba3b1c873fc","infoHashBuffer":{"type":"Buffer","data":[51,112,134,148,90,144,1,46,72,221,196,100,103,120,219,163,177,200,115,252]},"announce":[],"urlList":[]}}